<svg width="24" height="25" viewBox="0 0 24 25" fill="none" xmlns="http://www.w3.org/2000/svg">
<path d="M8.75602 4.75546L10.0271 2.92882C10.214 2.66017 10.5206 2.5 10.8479 2.5H12.653C12.9791 2.5 13.2847 2.65898 13.4719 2.926L14.7297 4.72032M8.75602 4.75546C8.40917 5.25031 7.83262 5.49279 7.22068 5.44956M8.75602 4.75546C8.40748 5.24912 7.83262 5.4948 7.22068 5.44956M7.22068 5.44956L4.97158 5.30836C4.65073 5.28821 4.33977 5.42355 4.13585 5.67208L2.99534 7.06208C2.77914 7.32557 2.71204 7.68104 2.8173 8.00522L3.47315 10.025M3.47315 10.025C3.56207 10.3134 3.57345 10.6223 3.50981 10.914M3.47315 10.025C3.56334 10.3129 3.5743 10.6211 3.50939 10.917M3.50981 10.914C3.44533 11.2023 3.3071 11.4745 3.10185 11.6949M3.50981 10.914L3.50939 10.917M3.10185 11.6949L1.61575 13.2933C1.38735 13.5389 1.29732 13.8827 1.376 14.2088L1.77856 15.877C1.85699 16.202 2.09263 16.4663 2.40653 16.5813L4.44838 17.3297C4.73328 17.4399 4.97941 17.6191 5.16569 17.8449M3.10185 11.6949C3.30836 11.4763 3.44533 11.205 3.50939 10.917M5.16569 17.8449C5.35071 18.0713 5.47672 18.3445 5.52561 18.6404M5.16569 17.8449C5.35239 18.0713 5.47883 18.3438 5.52561 18.6404M5.16569 17.8449L5.16274 17.8416C5.15052 17.8268 5.13745 17.8114 5.12481 17.797M5.52561 18.6404L5.87327 20.7759C5.92654 21.1031 6.13849 21.3827 6.43917 21.5223L8.0671 22.2781C8.35817 22.4132 8.6964 22.4005 8.97646 22.2438L10.8902 21.1731M10.8902 21.1731C11.1553 21.0242 11.4512 20.9495 11.747 20.9491M10.8902 21.1731C10.9952 21.1134 11.1052 21.0657 11.2181 21.0299C11.3897 20.9756 11.5684 20.9488 11.747 20.9491M11.747 20.9491C11.9009 20.9495 12.0547 20.9698 12.2047 21.01C12.3442 21.0474 12.48 21.1018 12.6085 21.1731M11.747 20.9491C12.0442 20.9487 12.3417 21.0234 12.6085 21.1731M12.6085 21.1731L14.612 22.2576C14.8932 22.4099 15.2304 22.4185 15.519 22.2806L17.1391 21.5068C17.4387 21.3637 17.6478 21.0812 17.6971 20.7529L18.0085 18.678M18.0085 18.678C18.0553 18.3805 18.1796 18.1052 18.3642 17.8768M18.0085 18.678C18.0536 18.3798 18.1788 18.1049 18.3642 17.8768M18.3642 17.8768C18.5476 17.6508 18.7907 17.4707 19.074 17.3593M18.3642 17.8768C18.5471 17.6499 18.7895 17.4693 19.074 17.3593M19.074 17.3593L21.1369 16.5508C21.4449 16.4301 21.6733 16.1649 21.7469 15.8425L22.1326 14.1539C22.2061 13.8323 22.1162 13.4952 21.8924 13.2528L20.3973 11.634M20.3973 11.634C20.1883 11.4128 20.0424 11.1485 19.9716 10.8677M20.3973 11.634C20.2991 11.5307 20.2148 11.4177 20.1461 11.298C20.0677 11.162 20.0092 11.0173 19.9716 10.8677M19.9716 10.8677C19.9021 10.5889 19.9063 10.2935 19.9944 10.0075L20.641 7.93487C20.7414 7.61307 20.6729 7.26235 20.4588 7.00196L19.3464 5.64894C19.1401 5.39805 18.8249 5.26298 18.5009 5.2867L16.2776 5.44956M16.2776 5.44956C15.9733 5.47104 15.6741 5.41308 15.4078 5.28839M16.2776 5.44956C15.9729 5.47228 15.6741 5.41385 15.4078 5.28839M15.4078 5.28839C15.1397 5.1621 14.9046 4.9679 14.7297 4.72032M15.4078 5.28839C15.1393 5.16256 14.9037 4.96888 14.7297 4.72032M3.50939 10.917L3.51024 10.9126M15.1359 12.5106C15.1359 14.3756 13.59 15.8874 11.6834 15.8874C9.77677 15.8874 8.23089 14.3756 8.23089 12.5106C8.23089 10.6457 9.77677 9.13386 11.6834 9.13386C13.59 9.13386 15.1359 10.6457 15.1359 12.5106Z" stroke="#B3C2FF" stroke-width="2"/>
</svg>
